<?xml version="1.0" encoding="utf-8"?>
<!-- Generator: Adobe Illustrator 21.1.0, SVG Export Plug-In . SVG Version: 6.00 Build 0)  -->
<svg version="1.1" id="Capa_1" xmlns="http://www.w3.org/2000/svg" xmlns:xlink="http://www.w3.org/1999/xlink" x="0px" y="0px"
	 viewBox="0 0 510.2 255.1" style="enable-background:new 0 0 510.2 255.1;" xml:space="preserve">
<style type="text/css">
	.st0{fill:none;stroke:#40A335;stroke-width:4;stroke-linecap:round;stroke-linejoin:round;stroke-miterlimit:10;}
	.st1{fill:none;stroke:#40A335;stroke-width:4;stroke-linejoin:round;stroke-miterlimit:10;}
</style>
<path class="st0" d="M493,220.6c-8.7-8-19-14.4-27.1-23c-22.3-23.5-26.2-60.1-48.1-84c-8.7-9.5-19.8-16.5-30.8-23.3
	c-11.7-7.3-22-15.8-33.8-23.1c4.2,16.8-1.7,36,2.4,52.9c1,4.2,2.5,8.3,2.9,12.6c1.7,22.5-27.5,35.3-33.5,57c-2.2,8-1,16.4-1.1,24.6
	s-2.1,17.3-8.7,22.3c-4.2-20.2-17-37.5-31.3-52.3c-14.3-14.8-30.6-27.7-44-43.3c-9.6-11.1-19.9-24.6-34.5-24.5
	c-8.2,0.1-15.6,4.6-22.6,9c-18,11.4-36,22.9-52,36.9c-7.5,6.6-14.6,13.7-22.6,19.8c-26.5,19.9-62.9,27.8-81.5,55.3
	c3.6,4.9,11,5,16.6,2.9c5.7-2.1,10.7-5.9,16.5-7.6c7.9-2.2,16.3-0.2,24.4-0.9c14-1,26.3-9.5,39.9-12.7c7.8-1.8,15.9-1.9,23.7-3.6
	s15.7-5.9,19.2-13.1c1.7-3.4,2.2-7.3,3.5-10.9c3.1-8.1,10-14,15.7-20.4c13.2-14.9,20.6-34.7,20.5-54.5"/>
<path class="st1" d="M225.3,124.6c10-15.3,21.2-29.8,32.4-44.2c1.7-2.2,3.4-4.4,5.2-6.6c3.9-5,7.9-10.1,11.8-15.1
	c3.9-5,8.4-10.3,14.7-11.2c7.7-1,14.3,5.2,20.1,10.5c2.4,2.2,4.9,4.3,7.9,5.4c2.1,0.8,4.4,1.1,6.6,1.4c8.8,1.3,20.9-0.3,29.3,2.6
	c-11.9,12.7-26,30.1-35.6,44.7c-2.4,3.6-4.6,7.3-7.3,10.7c-3.1,4-6.7,7.7-10.2,11.3c-11,11.3-22,22.5-33.1,33.8
	c-0.7-3.5-0.1-7.1,0.4-10.6c1-6.2,2-12.4,3-18.6c0.5-3,1-6,0.5-8.9c-0.5-3.3-2.2-6.2-3.4-9.3s-1.9-6.6-0.5-9.6
	c3.3-7.2,15-5.9,19.3-12.5c2.8-4.2,1.3-9.9,2-14.9c0.4-3.2,1.8-6.1,2.6-9.2c2.1-8.5-0.1-17.6,0.8-26.3"/>
<circle class="st1" cx="175.9" cy="45.7" r="32.5"/>
</svg>
